HIERARCHY
ROOT Hips
{
    OFFSET 0.000000 0.000000 0.000000
    CHANNELS 6 Xposition Yposition Zposition Zrotation Xrotation Yrotation
    JOINT Spine
    {
        OFFSET -0.000000 7.925200 0.000000
        CHANNELS 3 Zrotation Xrotation Yrotation
        JOINT Spine1
        {
            OFFSET -0.000000 23.364719 0.000000
            CHANNELS 3 Zrotation Xrotation Yrotation
            JOINT Neck
            {
                OFFSET -0.000000 23.268766 2.115342
                CHANNELS 3 Zrotation Xrotation Yrotation
                JOINT Head
                {
                    OFFSET -0.000000 13.530829 -1.932976
                    CHANNELS 3 Zrotation Xrotation Yrotation
                    End Site
                    {
                        OFFSET -0.000000 24.162195 0.000000
                    }
                }
            }
            JOINT LeftShoulder
            {
                OFFSET 3.858291 22.792089 -0.033814
                CHANNELS 3 Zrotation Xrotation Yrotation
                JOINT LeftArm
                {
                    OFFSET 7.057024 0.000000 0.000000
                    CHANNELS 3 Zrotation Xrotation Yrotation
                    JOINT LeftForeArm
                    {
                        OFFSET 34.734173 0.000000 0.000000
                        CHANNELS 3 Zrotation Xrotation Yrotation
                        JOINT LeftHand
                        {
                            OFFSET 23.943203 0.000000 0.000000
                            CHANNELS 3 Zrotation Xrotation Yrotation
                            End Site
                            {
                                OFFSET 14.497317 0.000000 0.000000
                            }
                        }
                    }
                }
            }
            JOINT RightShoulder
            {
                OFFSET -3.868823 22.792089 -0.033814
                CHANNELS 3 Zrotation Xrotation Yrotation
                JOINT RightArm
                {
                    OFFSET -7.057024 0.000000 0.000000
                    CHANNELS 3 Zrotation Xrotation Yrotation
                    JOINT RightForeArm
                    {
                        OFFSET -34.734173 0.000000 0.000000
                        CHANNELS 3 Zrotation Xrotation Yrotation
                        JOINT RightHand
                        {
                            OFFSET -23.943203 0.000000 0.000000
                            CHANNELS 3 Zrotation Xrotation Yrotation
                            End Site
                            {
                                OFFSET -14.497317 0.000000 0.000000
                            }
                        }
                    }
                }
            }
        }
    }
    JOINT LeftUpLeg
    {
        OFFSET 9.664878 0.000000 0.000000
        CHANNELS 3 Zrotation Xrotation Yrotation
        JOINT LeftLeg
        {
            OFFSET -0.000000 -38.728706 0.000000
            CHANNELS 3 Zrotation Xrotation Yrotation
            JOINT LeftFoot
            {
                OFFSET -0.000000 -40.242161 0.000000
                CHANNELS 3 Zrotation Xrotation Yrotation
                JOINT LeftToeBase
                {
                    OFFSET -0.000000 -6.282171 14.497317
                    CHANNELS 3 Zrotation Xrotation Yrotation
                    End Site
                    {
                        OFFSET -0.000000 0.000000 3.865951
                    }
                }
            }
        }
    }
    JOINT RightUpLeg
    {
        OFFSET -9.664878 0.000000 0.000000
        CHANNELS 3 Zrotation Xrotation Yrotation
        JOINT RightLeg
        {
            OFFSET -0.000000 -38.728706 0.000000
            CHANNELS 3 Zrotation Xrotation Yrotation
            JOINT RightFoot
            {
                OFFSET -0.000000 -40.242161 0.000000
                CHANNELS 3 Zrotation Xrotation Yrotation
                JOINT RightToeBase
                {
                    OFFSET -0.000000 -6.282171 14.497317
                    CHANNELS 3 Zrotation Xrotation Yrotation
                    End Site
                    {
                        OFFSET -0.000000 0.000000 3.865951
                    }
                }
            }
        }
    }
}
MOTION
Frames:    9
Frame Time:    0.008333
111.693443    93.846718    26.003986    0.367073    -9.698072    83.975334    1.014089    -6.034216    0.063362    9.269865    8.095448    -0.649145    -3.784875    14.325306    9.197691    -4.308781    -3.155334    8.915464    -3.978531    4.490224    5.804531    -53.839268    71.191490    -3.776621    7.207878    -18.625414    -36.722267    -2.315931    -16.105373    -12.018082    -2.526484    8.216950    1.963897    48.763279    60.837337    14.760844    1.874588    -19.619354    19.915243    -1.807824    -19.990656    4.150668    16.047806    -12.650271    9.933864    -5.146953    15.669256    6.561660    -4.415495    17.973803    -4.159478    0.000000    0.000000    0.000000    5.396873    -10.930459    2.485536    179.113541    71.963783    -160.412872    2.872937    -35.404972    -6.408103    0.000000    0.000000    0.000000    
112.543655    92.700134    25.822290    0.505671    -9.724735    84.362518    0.929863    -5.843977    0.019506    9.129117    7.555919    -0.632858    -3.700137    14.410328    9.146722    -4.115985    -3.145215    8.890631    -4.165535    4.522585    5.778227    -54.200005    71.214775    -3.119597    7.138863    -18.484993    -36.407394    -2.427285    -15.990029    -12.250205    -2.436781    8.420563    2.353428    49.347580    60.450184    14.100582    1.959015    -19.554520    19.580467    -1.508434    -19.927868    4.449098    16.081919    -12.827341    9.485391    -6.081588    18.409922    5.305053    -2.706798    11.555344    -2.906295    0.000000    0.000000    0.000000    4.574564    -10.541602    2.986092    178.176208    70.169632    -155.006973    2.045479    -34.943001    -9.216394    0.000000    0.000000    0.000000    
113.310936    91.566132    25.621170    0.526696    -9.756985    84.765587    0.848066    -5.808580    0.043046    9.019245    7.316365    -0.576158    -3.643538    14.533024    8.974214    -3.935004    -3.717510    8.716740    -4.180645    4.203611    5.701511    -54.565987    71.477051    -2.685499    6.942014    -18.283100    -35.853523    -2.489453    -15.872095    -12.497856    -2.363654    8.451262    2.495452    49.700489    60.216061    13.721327    1.968065    -19.668108    19.265245    -0.972264    -20.018320    4.510110    15.980281    -13.099738    9.594251    -6.501965    20.605682    3.236280    -0.181614    6.109216    -1.398565    0.000000    0.000000    0.000000    3.813768    -10.423654    3.467526    177.763870    68.293922    -150.046097    1.191087    -34.285019    -12.152381    0.000000    0.000000    0.000000    
114.090408    90.406487    25.456142    0.609113    -9.823477    85.243027    1.060495    -5.833257    -0.187014    8.675620    7.368842    -0.800878    -4.453423    13.898781    8.966320    -2.835226    -3.282420    8.948941    -4.554851    3.765196    6.199522    -54.063572    71.815880    -2.703486    6.615618    -18.144140    -35.306736    -2.490175    -15.859035    -12.868937    -2.798572    8.840873    3.073408    49.616055    59.191433    14.570288    2.395484    -19.339403    18.493456    -1.022679    -19.749746    5.082331    15.964394    -13.119493    9.821127    -6.900453    22.076365    1.765348    2.339811    1.574443    -0.544817    0.000000    0.000000    0.000000    3.123280    -10.225652    3.638416    178.157394    66.442795    -145.454529    0.677081    -33.725197    -15.459884    0.000000    0.000000    0.000000    
114.813171    89.302048    25.302441    0.709085    -9.941214    85.808945    0.995052    -5.991487    -0.018538    8.645720    7.916237    -0.670458    -4.130804    12.819312    8.585412    -2.823293    -2.578327    8.605994    -4.781422    3.685927    5.888927    -51.649933    71.654305    -5.328584    6.196301    -17.820377    -34.087013    -2.043686    -15.776819    -12.971093    -2.605003    8.526349    2.466000    49.419121    59.236919    14.906421    2.325194    -19.536324    17.900684    -0.634981    -19.909235    5.390790    16.033789    -13.278707    10.051060    -7.253096    23.700914    1.490795    4.936313    -2.740107    -0.653235    0.000000    0.000000    0.000000    2.567778    -10.104309    4.019413    178.181015    64.692627    -140.863678    0.614294    -33.064297    -18.327988    0.000000    0.000000    0.000000    
115.483688    88.290413    25.180504    0.718356    -10.067127    86.475784    1.445689    -5.918259    -0.148177    7.876461    7.873323    -0.765934    -4.150804    12.591363    8.549371    -2.620498    -2.741914    8.607312    -5.319464    3.829887    5.995968    -48.934681    71.743279    -7.671730    6.162014    -17.592310    -32.570740    -2.089301    -15.632240    -13.250381    -2.205032    8.789856    3.015251    49.677994    58.009361    15.113608    2.392351    -19.412340    16.542662    -0.516180    -19.765471    5.988708    16.158014    -13.723941    10.219100    -7.462058    25.479097    1.124191    7.225733    -6.645312    -0.601078    0.000000    0.000000    0.000000    2.207490    -10.121576    4.568125    177.987381    63.124710    -136.903152    0.251387    -31.940912    -20.383041    0.000000    0.000000    0.000000    
116.076637    87.435768    25.083347    0.347036    -10.216721    87.236908    1.857192    -6.298094    -0.204258    6.986021    8.075783    -0.800367    -3.779866    11.356863    8.378000    -2.244545    -1.668492    8.542256    -5.202802    3.880232    5.831953    -46.830677    71.367790    -10.151759    6.067396    -17.232666    -30.662313    -2.039117    -15.405015    -13.345602    -1.704196    8.847131    3.090357    49.398956    57.746780    15.778529    2.703736    -19.832294    15.864401    -1.510936    -20.251793    5.285715    16.370079    -14.788839    10.103958    -7.742578    27.498404    0.529387    8.816604    -9.799055    0.117633    0.000000    0.000000    0.000000    2.018816    -10.668503    4.883796    177.781754    61.814827    -134.023941    0.431877    -30.416578    -21.348867    0.000000    0.000000    0.000000    
116.581856    86.820328    24.997868    -0.158399    -10.219639    88.084450    1.898647    -6.757932    -0.329438    6.414971    8.134974    -0.898261    -3.774288    11.357645    8.036833    -1.667788    -2.436816    8.265324    -5.100427    3.942404    5.530230    -44.992298    71.472260    -12.423731    6.346783    -16.965332    -28.607845    -2.068762    -15.176401    -13.288842    -1.435791    8.813337    3.162190    49.427147    57.577419    16.291721    2.795269    -20.191750    15.086897    -1.570996    -20.602592    4.962771    16.418604    -16.337046    9.963075    -7.942110    29.824150    -0.294288    9.895398    -11.810874    1.094132    0.000000    0.000000    0.000000    1.800447    -11.462138    5.192252    177.025620    61.029022    -133.596375    3.576516    -29.279430    -18.965992    0.000000    0.000000    0.000000    
117.090271    86.362747    24.902163    -0.511601    -9.846661    89.005890    1.314342    -6.853135    -0.432664    6.129924    7.741945    -0.926724    -3.472821    11.356155    7.781678    -1.506065    -2.699174    8.008703    -4.982316    3.945971    5.259528    -43.903301    71.126236    -14.150520    6.522025    -16.054787    -26.445967    -2.111369    -14.337729    -13.205123    -1.093462    8.975370    3.063489    49.429588    57.391468    16.707071    2.814779    -20.267365    14.378746    -1.825361    -20.668709    4.595624    16.052435    -17.996944    9.277127    -8.299670    32.360794    -0.822133    10.253191    -12.876465    2.052354    0.000000    0.000000    0.000000    1.369845    -12.073693    5.139308    173.524124    63.374260    -166.104614    22.276581    -17.537407    21.621044    0.000000    0.000000    0.000000    
